<svg height="512" viewBox="0 0 64 64" width="512" xmlns="http://www.w3.org/2000/svg" fill="#ff0000"><g id="Layer_11" data-name="Layer 11"><path d="m52.53 32.82a.74.74 0 0 0 -.36-.61l-9.52-5.5v-11a.8.8 0 0 0 -.38-.65l-9.89-5.71a.77.77 0 0 0 -.75 0l-9.9 5.71a.8.8 0 0 0 -.38.65v11l-9.52 5.5a.82.82 0 0 0 -.37.65v11.43a.77.77 0 0 0 .37.65l9.9 5.71a.77.77 0 0 0 .75 0l9.52-5.5 9.52 5.5a.77.77 0 0 0 .75 0l9.9-5.71a.77.77 0 0 0 .37-.65v-11.43s-.01-.02-.01-.04zm-10.63 4.89-8.4-4.85 8.4-4.86 8.39 4.85zm-10.65-15.85v9.69l-8.4-4.84v-9.71zm9.9 4.85-8.4 4.84v-9.69l8.4-4.86zm-19.05 1.29 8.4 4.85-8.4 4.85-8.39-4.85zm.75 11 8.4-4.85v9.69l-8.4 4.85zm9.15-28.13 8.4 4.84-8.4 4.85-8.4-4.85zm-19 23.29 8.35 4.84v9.7l-8.35-4.85zm19.79 0 8.36 4.84v9.7l-8.4-4.85zm9.9 14.54v-9.7l8.31-4.84v9.69z"/><path d="m32 60.75a28.75 28.75 0 1 1 28.75-28.75 28.79 28.79 0 0 1 -28.75 28.75zm0-56a27.25 27.25 0 1 0 27.25 27.25 27.28 27.28 0 0 0 -27.25-27.25z"/></g></svg>