<svg id="Layer_1" viewBox="0 0 64 64" xmlns="http://www.w3.org/2000/svg" data-name="Layer 1" fill="#ff0000"><path d="m44.614 40.172c2.098-1.562 3.964-3.589 5.404-5.875.992-1.619 1.763-3.337 2.294-5.113.569-1.936.858-3.959.858-6.015 0-.172 0-.368-.011-.491-.022-.944-.108-1.902-.255-2.846-.296-1.929-.867-3.807-1.695-5.577-3.448-7.446-10.988-12.257-19.209-12.257-2.806 0-5.54.547-8.124 1.626-1.804.752-3.435 1.707-4.834 2.829-5.219 4.034-8.213 10.126-8.213 16.715 0 6.953 3.398 13.421 9.102 17.388v8.912l-2.832 3.39c-.478-.246-1.012-.399-1.586-.399-1.925 0-3.492 1.566-3.492 3.492s1.566 3.492 3.492 3.492 3.492-1.566 3.492-3.492c0-.621-.176-1.196-.462-1.702l3.156-3.777c.15-.18.232-.407.232-.641v-8.048c1.067.578 2.171 1.071 3.307 1.453 1.87.626 3.809.972 5.773 1.063v10.876c-1.442.429-2.503 1.752-2.503 3.332 0 1.925 1.566 3.492 3.492 3.492s3.492-1.566 3.492-3.492c0-1.571-1.05-2.888-2.48-3.325v-10.884c.788-.038 1.57-.103 2.33-.227 2.353-.374 4.641-1.165 6.75-2.308v8.068c0 .234.082.46.231.64l3.139 3.768c-.289.508-.467 1.086-.467 1.711 0 1.925 1.566 3.492 3.492 3.492s3.492-1.566 3.492-3.492-1.566-3.492-3.492-3.492c-.57 0-1.101.15-1.577.394l-2.818-3.383v-8.937c.174-.121.352-.236.522-.362zm-29.101 17.273c-.823 0-1.492-.669-1.492-1.492s.669-1.492 1.492-1.492c.407 0 .775.164 1.045.429.009.009.017.019.026.028.259.268.421.632.421 1.035 0 .823-.669 1.492-1.492 1.492zm34.465-1.492c0 .823-.669 1.492-1.492 1.492s-1.492-.669-1.492-1.492.669-1.492 1.492-1.492 1.492.669 1.492 1.492zm-16.487 2.555c0 .823-.669 1.492-1.492 1.492s-1.492-.669-1.492-1.492.669-1.492 1.492-1.492 1.492.669 1.492 1.492zm1.532-16.41c-2.982.486-6.2.231-9.149-.757-1.384-.464-2.719-1.106-3.984-1.891-.098-.449-.479-.793-.958-.793-.061 0-.115.024-.173.035-4.975-3.609-7.929-9.354-7.929-15.522 0-5.965 2.71-11.481 7.45-15.144 1.267-1.015 2.736-1.875 4.367-2.554 2.339-.977 4.813-1.473 7.354-1.473 7.445 0 14.272 4.356 17.396 11.101.749 1.601 1.264 3.295 1.532 5.039.134.86.212 1.73.234 2.636.009.125.008.269.008.395 0 1.864-.261 3.698-.775 5.446-.48 1.605-1.181 3.166-2.075 4.626-1.304 2.068-2.999 3.91-4.897 5.324-.049.036-.101.069-.151.105-.061-.011-.116-.036-.18-.036-.48 0-.863.346-.959.797-2.173 1.349-4.6 2.268-7.109 2.667z"/><path d="m45.843 31.719c.761-1.242 1.354-2.562 1.762-3.929.438-1.488.659-3.042.659-4.62 0-.136 0-.292-.009-.376-.017-.728-.083-1.464-.196-2.186-.228-1.484-.667-2.927-1.302-4.286-2.649-5.721-8.442-9.417-14.758-9.417-2.155 0-4.255.42-6.242 1.25-1.387.578-2.641 1.313-3.713 2.172-4.01 3.099-6.31 7.78-6.31 12.842 0 5.438 2.701 10.494 7.226 13.525 1.207.805 2.5 1.441 3.844 1.892 1.678.562 3.425.847 5.194.847.869 0 1.734-.069 2.567-.205 2.556-.407 5.019-1.442 7.124-2.998 1.611-1.2 3.044-2.757 4.152-4.513zm-11.594 5.536c-2.224.362-4.614.172-6.808-.564-1.177-.395-2.311-.953-3.369-1.658-3.968-2.659-6.337-7.093-6.337-11.863 0-4.438 2.017-8.542 5.547-11.271.939-.753 2.032-1.392 3.246-1.898 1.741-.727 3.583-1.096 5.472-1.096 5.54 0 10.62 3.241 12.945 8.261.556 1.189.939 2.449 1.139 3.748.1.637.158 1.285.175 1.976.006.089.005.19.005.28 0 1.386-.194 2.75-.577 4.051-.357 1.196-.879 2.357-1.543 3.441-.971 1.54-2.232 2.911-3.645 3.963-1.846 1.363-4.006 2.271-6.251 2.629z"/><path d="m29.53 17.646h4.918c.858 0 1.557.698 1.557 1.556 0 .552.448 1 1 1s1-.448 1-1c0-1.961-1.596-3.556-3.557-3.556h-1.457v-1.539c0-.552-.448-1-1-1s-1 .448-1 1v1.539h-1.461c-1.961 0-3.556 1.595-3.556 3.556v1.419c0 1.961 1.595 3.557 3.556 3.557h4.918c.858 0 1.557.698 1.557 1.556v1.419c0 .858-.698 1.556-1.557 1.556h-2.426c-.011 0-.02-.006-.031-.006s-.02.006-.031.006h-2.43c-.858 0-1.556-.698-1.556-1.556 0-.552-.448-1-1-1s-1 .448-1 1c0 1.961 1.595 3.556 3.556 3.556h1.461v1.525c0 .552.448 1 1 1s1-.448 1-1v-1.525h1.457c1.961 0 3.557-1.595 3.557-3.556v-1.419c0-1.961-1.596-3.556-3.557-3.556h-4.918c-.858 0-1.556-.698-1.556-1.557v-1.419c0-.858.698-1.556 1.556-1.556z"/></svg>