<svg enable-background="new 0 0 512 512" height="512" viewBox="0 0 512 512" width="512" xmlns="http://www.w3.org/2000/svg" fill="#ff0000"><g id="_x30_3_x2C__Inflation_x2C__money_x2C__growth_x2C__rising_x2C__economic_crises_x2C__finance"><g><g id="XMLID_53_"><path d="m501 256h-40c-5.522 0-10 4.477-10 10v200h-20v-110c0-5.523-4.478-10-10-10h-40c-5.522 0-10 4.477-10 10v110h-20v-70c0-5.523-4.478-10-10-10h-40c-5.522 0-10 4.477-10 10v70h-20c0-12.092 0-95.684 0-106.492l72.35-90.437 42.506 25.503c4.148 2.489 9.485 1.651 12.67-1.99l89.818-102.65 2.706 27.06c.551 5.506 5.467 9.509 10.945 8.955 5.495-.549 9.505-5.45 8.955-10.945-3.883-38.737-4.978-50.017-5.115-50.779-.81-4.517-4.603-7.908-9.205-8.196-.757-.047 2.421-.023-50.63-.03-5.522 0-10 4.477-10 10s4.478 10 10 10h27.963l-84.985 97.125-42.833-25.7c-4.29-2.576-9.826-1.581-12.953 2.328l-62.192 77.74c0-9.33 0-81.199 0-91.492 0-5.523-4.478-10-10-10h-61.828c28.3-19.923 46.828-52.837 46.828-90 0-60.654-49.346-110-110-110s-110 49.346-110 110c0 37.163 18.528 70.077 46.828 90h-61.828c-5.523 0-10 4.477-10 10v240c0 5.523 4.477 10 10 10h490c5.522 0 10-4.477 10-10v-210c0-5.523-4.478-10-10-10zm-480 90v-40h230v40zm0 20h230v40h-230zm25-230c0-49.626 40.374-90 90-90s90 40.374 90 90-40.374 90-90 90-90-40.374-90-90zm-25 110h230v40h-230zm0 180h230v40h-230zm290-20h20v60h-20zm80-40h20v100h-20zm100 100h-20v-190h20z"/><path d="m136 106h20c5.523 0 10-4.477 10-10s-4.477-10-10-10h-10v-10c0-5.523-4.477-10-10-10s-10 4.477-10 10v11.72c-11.639 4.128-20 15.243-20 28.28 0 16.575 13.424 30 30 30 2.669 0 5.179 1.041 7.069 2.931 3.911 3.912 3.911 10.227 0 14.138-1.891 1.89-4.401 2.931-7.069 2.931h-20c-5.523 0-10 4.477-10 10s4.477 10 10 10h10v10c0 5.523 4.477 10 10 10s10-4.477 10-10v-11.712c11.653-4.117 20-15.22 20-28.288 0-16.575-13.424-30-30-30-5.522 0-10-4.479-10-10 0-5.514 4.485-10 10-10z"/></g></g></g></svg>