<svg id="Layer_1" enable-background="new 0 0 512 512" height="512" viewBox="0 0 512 512" width="512" xmlns="http://www.w3.org/2000/svg" fill="#ff0000"><path clip-rule="evenodd" d="m169.549 273.356c44.731 0 81.123-36.393 81.123-81.124 0-43.444-49.675-120.979-75.015-150.942-1.52-1.797-3.754-2.834-6.108-2.834s-4.588 1.037-6.108 2.834c-25.34 29.962-75.016 107.494-75.016 150.942 0 44.732 36.392 81.124 81.124 81.124zm0-214.166c25.632 33.057 65.123 98.881 65.123 133.042 0 35.909-29.214 65.124-65.123 65.124s-65.124-29.215-65.124-65.124c0-34.164 39.492-99.987 65.124-133.042zm-56.132 144.046c-.818-4.342 2.038-8.524 6.38-9.343 4.342-.817 8.525 2.038 9.343 6.38 2.958 15.696 14.917 28.208 30.469 31.876 4.3 1.014 6.964 5.322 5.949 9.623-.868 3.683-4.153 6.165-7.779 6.165-.608 0-1.226-.07-1.844-.216-21.701-5.117-38.39-22.579-42.518-44.485zm68.487-8.545c.981-1.136 1.311-2.364 1.099-4.11-.245-2.014-.817-6.731-14.689-9.009-21.852-3.588-25.689-15.975-26.032-23.039-.562-11.562 7.137-21.279 19.268-24.502v-2.548c0-4.418 3.582-8 8-8s8 3.582 8 8v2.476c7.837 1.996 15.198 7.156 19.118 16.492 1.711 4.073-.205 8.763-4.279 10.473-4.067 1.709-8.763-.204-10.473-4.279-3.284-7.819-11.404-8.26-15.681-7.292-1.945.441-8.267 2.351-7.973 8.405.08 1.641.291 5.998 12.644 8.025 17.063 2.802 26.478 10.496 27.98 22.869.757 6.232-.931 11.939-4.881 16.506-3.806 4.4-9.694 7.544-16.456 8.93v2.268c0 4.418-3.582 8-8 8s-8-3.582-8-8v-2.403c-10.632-2.501-18.74-9.891-21.276-20.059-1.068-4.287 1.54-8.629 5.827-9.698 4.286-1.062 8.629 1.541 9.698 5.827 1.682 6.747 8.836 8.985 14.436 8.85 4.918-.118 9.608-1.798 11.67-4.182zm253.941-183.008c-1.52-1.797-3.755-2.834-6.108-2.834s-4.589 1.037-6.108 2.834c-23.022 27.225-68.155 97.706-68.155 137.267 0 40.949 33.314 74.264 74.264 74.264s74.262-33.316 74.262-74.265c0-39.56-45.133-110.042-68.155-137.266zm-6.109 195.53c-32.127 0-58.264-26.137-58.264-58.264 0-30.528 35.09-89.229 58.264-119.335 23.174 30.107 58.264 88.807 58.264 119.335 0 32.127-26.137 58.264-58.264 58.264zm-2.885-13.199c-.868 3.683-4.153 6.165-7.779 6.165-.608 0-1.226-.07-1.844-.216-19.954-4.707-35.299-20.763-39.094-40.904-.818-4.342 2.038-8.525 6.38-9.343 4.349-.817 8.525 2.038 9.343 6.38 2.625 13.933 13.241 25.039 27.045 28.295 4.299 1.014 6.963 5.322 5.949 9.623zm30.215-48.4c.712 5.864-.879 11.236-4.6 15.539-3.442 3.979-8.693 6.856-14.73 8.206v1.449c0 4.418-3.582 8-8 8s-8-3.582-8-8v-1.588c-9.622-2.457-16.936-9.272-19.258-18.585-1.068-4.287 1.54-8.629 5.827-9.698 4.294-1.068 8.629 1.541 9.698 5.827 1.416 5.683 7.553 7.6 12.335 7.45 4.192-.1 8.315-1.551 10.026-3.529.546-.632 1.023-1.449.818-3.143-.201-1.657-.674-5.541-12.688-7.514-20.323-3.338-23.896-14.955-24.218-21.582-.519-10.666 6.436-19.652 17.458-22.811v-1.737c0-4.418 3.582-8 8-8s8 3.582 8 8v1.664c7.094 1.96 13.704 6.746 17.267 15.232 1.711 4.073-.205 8.763-4.279 10.473-4.071 1.71-8.763-.205-10.473-4.279-2.783-6.627-9.703-6.991-13.352-6.166-1.618.367-6.879 1.945-6.641 6.848.059 1.195.234 4.829 10.83 6.569 15.833 2.601 24.573 9.792 25.98 21.375zm-143.406 198.587c42.461 0 77.005-34.544 77.005-77.005 0-41.113-46.947-114.412-70.896-142.73-1.52-1.797-3.755-2.834-6.108-2.834s-4.589 1.037-6.108 2.834c-23.949 28.318-70.896 101.617-70.896 142.73-.002 42.461 34.542 77.005 77.003 77.005zm0-201.817c24.157 31.288 61.005 92.833 61.005 124.812 0 33.639-27.366 61.005-61.005 61.005s-61.005-27.366-61.005-61.005c0-31.979 36.848-93.524 61.005-124.812zm-47.032 125.936c4.345-.821 8.525 2.038 9.343 6.38 2.759 14.638 13.911 26.306 28.412 29.726 4.301 1.014 6.965 5.322 5.95 9.622-.868 3.684-4.153 6.166-7.779 6.166-.608 0-1.226-.07-1.843-.216-20.651-4.87-36.534-21.488-40.463-42.335-.818-4.342 2.038-8.524 6.38-9.343zm58.351.901c.589-.681 1.16-1.632.93-3.527-.219-1.801-.731-6.019-13.487-8.112-20.933-3.438-24.612-15.361-24.942-22.164-.536-11.025 6.717-20.304 18.182-23.488v-2.06c0-4.418 3.582-8 8-8s8 3.582 8 8v1.987c7.392 1.975 14.301 6.911 18.006 15.737 1.711 4.073-.205 8.763-4.279 10.473-4.068 1.709-8.763-.204-10.473-4.279-2.982-7.104-10.384-7.501-14.282-6.616-1.749.396-7.433 2.107-7.173 7.47.07 1.449.258 5.297 11.554 7.151 16.323 2.68 25.333 10.072 26.778 21.972.73 6.01-.898 11.516-4.71 15.923-3.587 4.148-9.094 7.133-15.421 8.499v1.774c0 4.418-3.582 8-8 8s-8-3.582-8-8v-1.913c-10.027-2.475-17.657-9.52-20.064-19.174-1.068-4.287 1.541-8.629 5.827-9.698 4.293-1.063 8.629 1.541 9.698 5.827 1.522 6.107 8.027 8.126 13.174 8.009 4.451-.107 8.845-1.665 10.682-3.791zm46.068 61.044-78.625 45.796c-3.113 1.812-6.27 3.195-9.526 4.157 1.027-2.007 1.864-4.189 2.493-6.536 4.16-15.528-5.052-31.734-20.972-36.895-.343-.11-.692-.198-1.047-.263-22.514-4.061-44.772-12.108-62.658-18.574-6.233-2.254-12.121-4.382-17.137-6.009-20.514-6.656-38.96 1.528-54.302 10.411l-57.602 33.35-5.007-8.846c-5.316-9.393-17.282-12.711-26.679-7.394l-22.061 12.485c-4.539 2.568-7.811 6.764-9.209 11.811-1.4 5.049-.756 10.329 1.814 14.868l64.857 114.599c3.597 6.356 10.239 9.931 17.069 9.931 3.265 0 6.571-.816 9.609-2.536l22.061-12.485c4.539-2.568 7.811-6.764 9.209-11.811 1.4-5.049.756-10.329-1.814-14.868l-6.188-10.933 12.089-6.979 100.295 26.874c5.646 1.513 11.264 2.265 16.789 2.265 11.178 0 21.976-3.077 31.847-9.154l142.688-87.861c13.458-8.285 17.747-29.134 8.998-43.741-4.235-7.076-21.59-28.103-66.991-1.662zm-253.128 141.785c-.149.538-.564 1.534-1.672 2.161l-22.061 12.485c-1.106.624-2.174.468-2.713.32-.538-.149-1.534-.565-2.161-1.672l-64.857-114.6c-.626-1.105-.47-2.174-.32-2.712s.564-1.534 1.672-2.161l22.061-12.485c.539-.305 1.135-.449 1.727-.449 1.258 0 2.498.653 3.147 1.8l64.857 114.601c.626 1.105.469 2.174.32 2.712zm302.734-110.008-142.688 87.861c-11.066 6.812-23.213 8.515-36.105 5.06l-103.496-27.731c-2.048-.55-4.232-.263-6.07.799l-14.84 8.568-37.902-66.971 57.739-33.429c12.906-7.473 26.848-13.739 41.348-9.038 4.763 1.545 10.264 3.534 16.633 5.837 18.301 6.616 41.038 14.837 64.673 19.167 7.657 2.713 11.938 10.102 9.989 17.377-2.567 9.581-10.612 10.776-17.034 10.041-11.516-2.372-45.328-12.024-51.208-13.6-4.265-1.141-8.653 1.39-9.798 5.657-1.144 4.268 1.39 8.654 5.657 9.798 5.755 1.542 40.243 11.391 52.483 13.894.052.011.263.05.318.059l9.78 1.59c14.868 2.377 28.062.058 40.341-7.092l78.626-45.796c22.087-12.862 38.989-14.338 45.214-3.944 4.258 7.106 2.411 18.156-3.66 21.893zm-366.889 12.588c.629 4.304-2.35 8.303-6.654 8.933-4.304.629-8.304-2.35-8.933-6.654s2.35-8.304 6.654-8.933c4.304-.63 8.304 2.349 8.933 6.654z" fill-rule="evenodd"/></svg>