<svg id="Layer_1" enable-background="new 0 0 512 512" viewBox="0 0 512 512" xmlns="http://www.w3.org/2000/svg" fill="#ff0000"><path d="m145.576 160.357 30.297-30.298c2.632-2.635 6.741-3.097 9.895-1.107l26.741 16.862c2.408-1.106 4.854-2.118 7.325-3.028l6.953-30.81c.821-3.637 4.053-6.221 7.781-6.221h42.834c3.727 0 6.956 2.58 7.779 6.214l6.98 30.816c2.472.91 4.919 1.922 7.327 3.029l26.712-16.86c3.153-1.991 7.263-1.531 9.898 1.105l30.297 30.298c2.636 2.635 3.095 6.745 1.105 9.898l-16.863 26.719c1.105 2.41 2.121 4.862 3.041 7.341l30.802 6.956c3.636.822 6.219 4.053 6.219 7.781v42.834c0 3.726-2.58 6.955-6.213 7.779l-30.806 6.983c-.921 2.481-1.936 4.926-3.038 7.323l16.858 26.712c1.99 3.153 1.531 7.263-1.105 9.898l-30.297 30.298c-2.635 2.635-6.745 3.095-9.898 1.105l-26.712-16.859c-2.398 1.103-4.845 2.119-7.328 3.041l-.881 3.874c-.978 4.294-5.244 6.981-9.549 6.008-4.296-.979-6.985-5.253-6.008-9.549l1.864-8.188c.625-2.745 2.651-4.958 5.331-5.822 4.622-1.489 9.137-3.364 13.421-5.57 2.511-1.294 5.519-1.164 7.91.346l25.076 15.826 21.282-21.283-15.826-25.076c-1.509-2.39-1.64-5.399-.346-7.91 2.207-4.284 4.081-8.799 5.569-13.419.864-2.682 3.08-4.71 5.829-5.333l28.913-6.554v-30.087l-28.907-6.529c-2.751-.622-4.97-2.651-5.835-5.336-1.482-4.601-3.359-9.131-5.578-13.465-1.284-2.509-1.15-5.509.355-7.893l15.826-25.076-21.282-21.283-25.076 15.827c-2.391 1.509-5.4 1.64-7.911.345-4.317-2.225-8.819-4.085-13.38-5.528-2.701-.856-4.746-3.08-5.372-5.842l-6.555-28.941h-30.085l-6.53 28.934c-.625 2.767-2.67 4.993-5.374 5.849-4.559 1.443-9.061 3.303-13.38 5.528-2.51 1.294-5.519 1.163-7.909-.343l-25.105-15.831-21.284 21.285 15.826 25.077c1.504 2.382 1.638 5.382.355 7.891-2.236 4.37-4.1 8.887-5.539 13.429-.856 2.703-3.083 4.748-5.848 5.373l-28.934 6.53v30.086l28.913 6.554c2.748.623 4.964 2.65 5.829 5.332 1.489 4.622 3.363 9.137 5.569 13.421 1.294 2.512 1.161 5.519-.345 7.909l-15.826 25.077 21.284 21.285 25.105-15.83c2.389-1.507 5.397-1.636 7.908-.344 4.285 2.207 8.801 4.082 13.42 5.57 2.69.867 4.72 3.091 5.338 5.848l1.835 8.188c.963 4.299-1.741 8.564-6.04 9.528-4.299.966-8.564-1.741-9.528-6.04l-.863-3.854c-2.477-.92-4.919-1.934-7.313-3.035l-26.741 16.862c-1.31.827-2.786 1.23-4.252 1.23-2.061 0-4.104-.797-5.643-2.337l-30.297-30.298c-2.636-2.635-3.095-6.745-1.106-9.897l16.859-26.713c-1.102-2.397-2.117-4.842-3.038-7.322l-30.807-6.984c-3.633-.824-6.213-4.053-6.213-7.779v-42.834c0-3.729 2.584-6.96 6.221-7.781l30.811-6.953c.91-2.47 1.922-4.922 3.031-7.343l-16.864-26.721c-1.989-3.153-1.53-7.263 1.106-9.898zm162.935 132.638c-14.479 14.48-33.506 21.723-52.526 21.723-19.024 0-38.043-7.239-52.526-21.723-14.03-14.029-21.757-32.683-21.757-52.526 0-19.842 7.727-38.497 21.757-52.526 28.963-28.963 76.089-28.963 105.052 0 14.03 14.029 21.757 32.684 21.757 52.526 0 19.844-7.727 38.497-21.757 52.526zm-11.28-11.28c11.016-11.016 17.083-25.664 17.083-41.246 0-15.581-6.066-30.229-17.083-41.246-11.372-11.371-26.309-17.056-41.246-17.056s-29.874 5.686-41.246 17.056c-11.016 11.016-17.083 25.665-17.083 41.246 0 15.582 6.066 30.229 17.083 41.246 22.744 22.743 59.749 22.743 82.492 0zm-14.223-70.926-39.359 42.604-16.894-16.16c-3.184-3.044-8.232-2.933-11.278.251-3.045 3.183-2.933 8.232.251 11.278l22.759 21.77c1.486 1.421 3.462 2.212 5.514 2.212.082 0 .164-.001.246-.004 2.139-.066 4.161-.988 5.613-2.56l44.866-48.566c2.989-3.235 2.79-8.282-.446-11.271-3.236-2.99-8.283-2.79-11.272.446zm147.709 110.909c-12.587-12.587-37.78-7.667-50.246 4.801l-54.579 54.578c-3.66-13.732-16.215-23.879-31.096-23.879h-116.445c-28.009 0-37.844 15.8-48.257 32.529-1.007 1.619-2.039 3.275-3.11 4.959l-32.16 50.458c-2.368 3.715-1.275 8.646 2.44 11.014 3.715 2.369 8.646 1.275 11.014-2.44l32.163-50.462c1.103-1.733 2.162-3.436 3.198-5.099 10.036-16.123 15.565-25.006 34.713-25.006h116.445c8.945 0 16.222 7.265 16.222 16.193 0 3.023-.864 5.967-2.451 8.519-.037.054-.078.105-.114.16-3.004 4.723-8.109 7.542-13.657 7.542h-53.959c-4.406 0-7.977 3.571-7.977 7.977s3.571 7.977 7.977 7.977h53.959c9.193 0 17.753-3.885 23.796-10.587.018-.018.038-.033.057-.052l73.103-73.103c6.794-6.792 22.01-10.474 27.686-4.801l11.47 11.47-105.197 105.169c-7.283 7.307-15.474 11.205-25.702 12.26l-2.397.224-122.623 1.747c-2.679.038-5.16 1.419-6.605 3.677l-19.963 31.201c-2.374 3.71-1.291 8.644 2.42 11.017 1.331.852 2.819 1.259 4.291 1.259 2.629 0 5.204-1.3 6.727-3.679l17.65-27.585 118.647-1.69c.21-.003.42-.015.63-.034l2.784-.261c13.965-1.439 25.557-6.958 35.431-16.864l110.826-110.798c1.496-1.496 2.337-3.525 2.337-5.64 0-2.116-.84-4.145-2.337-5.641zm-331.455-142.896-19.334 12.258c-1.306.828-2.791 1.239-4.27 1.239-1.649 0-3.293-.51-4.687-1.521-2.646-1.921-3.852-5.262-3.043-8.43l5.668-22.186-17.601-14.594c-2.517-2.087-3.505-5.497-2.494-8.606 1.01-3.109 3.815-5.286 7.078-5.494l22.829-1.458 8.441-21.254c1.206-3.038 4.145-5.032 7.413-5.032s6.207 1.994 7.413 5.032l8.442 21.254 22.828 1.458c3.263.208 6.068 2.385 7.078 5.494 1.011 3.109.022 6.519-2.494 8.606l-17.6 14.594 5.667 22.186c.809 3.168-.397 6.509-3.043 8.43-2.644 1.92-6.194 2.031-8.957.282zm-4.272-16.182c1.304-.826 2.788-1.239 4.271-1.239s2.967.413 4.271 1.239l6.63 4.204-1.943-7.605c-.763-2.987.264-6.147 2.637-8.115l6.025-4.996-7.823-.5c-3.078-.197-5.767-2.149-6.906-5.016l-2.893-7.283-2.892 7.283c-1.138 2.866-3.827 4.819-6.906 5.016l-7.823.5 6.025 4.996c2.374 1.968 3.4 5.127 2.637 8.115l-1.944 7.605zm361.011-17.049-17.624 14.594 5.666 22.182c.809 3.169-.397 6.511-3.044 8.431-2.648 1.919-6.198 2.031-8.959.278l-19.304-12.253-19.333 12.256c-1.306.828-2.79 1.239-4.269 1.239-1.649 0-3.293-.51-4.687-1.521-2.646-1.921-3.852-5.262-3.043-8.43l5.666-22.182-17.623-14.594c-2.518-2.086-3.509-5.497-2.499-8.607s3.815-5.289 7.079-5.497l22.834-1.458 8.468-21.261c1.208-3.034 4.145-5.025 7.41-5.025h.004c3.267.002 6.203 1.996 7.409 5.032l8.441 21.254 22.829 1.458c3.264.208 6.069 2.387 7.079 5.497 1.009 3.11.018 6.522-2.5 8.607zm-25.661.536-7.804-.499c-3.079-.197-5.767-2.15-6.906-5.016l-2.903-7.308-2.913 7.315c-1.14 2.863-3.827 4.813-6.903 5.009l-7.804.499 6.03 4.993c2.376 1.968 3.405 5.129 2.641 8.119l-1.944 7.606 6.633-4.205c2.609-1.654 5.938-1.651 8.545.003l6.594 4.186-1.939-7.589c-.764-2.989.265-6.151 2.641-8.119zm-225.298-108.083c1.01-3.108 3.813-5.287 7.075-5.496l26.618-1.71 9.853-24.788c1.207-3.037 4.144-5.03 7.412-5.03h.003c3.269.001 6.207 1.997 7.412 5.036l9.827 24.782 26.639 1.71c3.263.209 6.066 2.387 7.076 5.496s.02 6.519-2.496 8.605l-20.538 17.023 6.601 25.857c.809 3.167-.398 6.509-3.044 8.429-2.648 1.918-6.196 2.031-8.958.279l-22.524-14.289-22.553 14.292c-1.306.827-2.789 1.238-4.268 1.238-1.65 0-3.296-.511-4.69-1.523-2.646-1.923-3.85-5.266-3.038-8.433l6.624-25.853-20.534-17.02c-2.517-2.085-3.507-5.496-2.497-8.605zm28.137 9.137 8.965 7.431c2.375 1.969 3.403 5.131 2.636 8.121l-2.886 11.266 9.837-6.233c2.608-1.652 5.935-1.651 8.543.003l9.821 6.231-2.877-11.273c-.763-2.987.265-6.147 2.638-8.114l8.964-7.43-11.64-.747c-3.079-.197-5.767-2.152-6.905-5.019l-4.283-10.802-4.297 10.808c-1.138 2.864-3.825 4.816-6.901 5.014z"/></svg>