<?xml version="1.0" encoding="UTF-8"?>
<svg id="Capa_1" xmlns="http://www.w3.org/2000/svg" version="1.1" viewBox="0 0 22.8 22.8">
  <!-- Generator: Adobe Illustrator 29.4.0, SVG Export Plug-In . SVG Version: 2.1.0 Build 152)  -->
  <defs>
    <style>
      .st0 {
        fill: #666;
      }
    </style>
  </defs>
  <path class="st0" d="M15.8,0h.2c.1,1.6-.5,2.8-1.2,3.7-.7.9-1.7,1.7-3.4,1.6-.1-1.6.5-2.7,1.2-3.6C13.3.9,14.6.2,15.8,0Z"/>
  <path class="st0" d="M20.7,16.7h0c-.5,1.4-1.1,2.6-1.9,3.7-.7,1-1.6,2.3-3.2,2.3s-2.3-.9-3.7-.9c-1.5,0-2.3.7-3.7.9h-.5c-1-.1-1.8-.9-2.4-1.6-1.7-2.1-3.1-4.8-3.3-8.3v-1c.1-2.5,1.3-4.5,2.9-5.5.8-.5,2-1,3.3-.8.6,0,1.1.3,1.6.5.5.2,1.1.5,1.6.5.4,0,.8-.2,1.1-.3,1.1-.4,2.2-.9,3.7-.6,1.7.3,3,1,3.7,2.2-1.5.9-2.6,2.3-2.4,4.7.2,2.2,1.4,3.5,3,4.2Z"/>
</svg>