<?xml version="1.0" encoding="UTF-8"?>
<svg id="Layer_1" xmlns="http://www.w3.org/2000/svg" version="1.1" viewBox="0 0 512 512">
  <!-- Generator: Adobe Illustrator 29.4.0, SVG Export Plug-In . SVG Version: 2.1.0 Build 152)  -->
  <defs>
    <style>
      .st0 {
        fill: #686868;
        fill-rule: evenodd;
      }
    </style>
  </defs>
  <path class="st0" d="M26.7,128c0-32.4,26.3-58.7,58.7-58.7h341.3c32.4,0,58.7,26.3,58.7,58.7v213.3c0,32.4-26.3,58.7-58.7,58.7h-123.4l16,32h43.4c8.8,0,16,7.2,16,16s-7.2,16-16,16h-213.3c-8.8,0-16-7.2-16-16s7.2-16,16-16h43.4l16-32h-123.4c-32.4,0-58.7-26.3-58.7-58.7v-213.3ZM426.7,368H85.3c-14.7,0-26.7-11.9-26.7-26.7v-213.3c0-14.7,11.9-26.7,26.7-26.7h341.3c14.7,0,26.7,11.9,26.7,26.7v213.3c0,14.7-11.9,26.7-26.7,26.7Z"/>
</svg>