<svg width="99" height="79" viewBox="0 0 99 79" fill="none" xmlns="http://www.w3.org/2000/svg">
<path d="M54.5843 16.0916L72.4687 22.8856L54.5843 29.6796V25.7078H9.7742C8.1749 25.7078 5.81803 28.5199 5.93191 30.2023L5.92201 68.8758C6.14978 71.1454 7.78869 72.9074 9.98215 73.3653H49.2863C51.0688 73.3951 53.5495 70.7223 53.5495 69.0748V62.0718H58.9564V70.3291C58.9564 73.9725 53.4306 79.0593 49.7022 78.9996H9.57119C4.53067 78.1982 0.737902 74.2313 0.321985 69.0699C-0.6881 56.6068 1.06965 42.8047 0.321985 30.1973C0.0694637 25.9566 5.1892 20.0585 9.36323 20.0585H54.5893V16.0867L54.5843 16.0916Z" fill="black"/>
<path d="M44.1864 58.941V62.9129L26.302 56.1189L44.1864 49.3249V53.2968H88.9965C90.4918 53.2968 92.9477 50.4149 92.8438 48.8023L92.8537 10.3328C92.6407 8.23741 91.5118 6.48042 89.4818 5.78361C75.9843 5.16642 62.264 5.26099 48.7565 5.73881C47.4692 6.30124 46.4492 6.89354 45.8154 8.2175C45.7065 8.44645 45.2312 9.80525 45.2312 9.92471V16.9277H39.8242C38.7003 9.78036 40.2798 1.7321 48.3406 0.0895911L89.2094 0C94.4431 0.86107 98.0427 4.81801 98.4586 10.1387C97.7753 22.6566 99.3895 36.1898 98.4586 48.5932C98.1715 52.4606 96.0622 56.2085 92.512 57.8709C91.9674 58.1247 89.6749 58.941 89.2094 58.941H44.1914H44.1864Z" fill="#E63938"/>
</svg>
