<?xml version="1.0" encoding="UTF-8"?>
<svg id="Layer_3" xmlns="http://www.w3.org/2000/svg" version="1.1" viewBox="0 0 512 512">
  <!-- Generator: Adobe Illustrator 29.4.0, SVG Export Plug-In . SVG Version: 2.1.0 Build 152)  -->
  <defs>
    <style>
      .st0 {
        fill: #f22;
      }
    </style>
  </defs>
  <path class="st0" d="M375.7,475.1c-6.1,0-12.1-1.5-17.4-4.3l-99.7-52.4c-1.6-.8-3.5-.8-5,0l-99.7,52.4c-18.3,9.6-40.9,2.6-50.5-15.7-3.8-7.3-5.2-15.6-3.8-23.8l19-111c.3-1.8-.3-3.6-1.6-4.8l-80.6-78.7c-14.8-14.4-15.1-38.1-.7-52.9,5.8-5.9,13.3-9.8,21.5-10.9l111.4-16.2c1.8-.3,3.3-1.4,4.1-3l49.8-101c9.1-18.5,31.5-26.1,50.1-17,7.4,3.6,13.4,9.6,17,17l49.8,101c.8,1.6,2.3,2.7,4.1,3l111.5,16.2c20.5,2.9,34.7,21.9,31.7,42.4-1.2,8.2-5,15.7-10.9,21.4l-80.7,78.6c-1.3,1.2-1.9,3-1.6,4.8l19,111c3.5,20.4-10.2,39.7-30.6,43.2-2,.3-4.1.5-6.2.5h0ZM256,385.7c6.1,0,12,1.5,17.4,4.3l99.7,52.4c1.8,1,4.1.9,5.7-.4,1.7-1.2,2.6-3.3,2.2-5.3l-19.1-111c-2.1-12.1,2-24.5,10.8-33.1l80.7-78.6c2.1-2.1,2.2-5.5,0-7.6-.8-.8-1.9-1.4-3.1-1.6l-111.5-16.2c-12.2-1.8-22.7-9.4-28.2-20.5l-49.9-101c-1.3-2.7-4.6-3.8-7.2-2.5-1.1.5-1.9,1.4-2.5,2.5l-49.8,101c-5.4,11-16,18.7-28.2,20.5l-111.5,16.2c-2.9.4-5,3.1-4.6,6.1.2,1.2.7,2.3,1.6,3.1l80.7,78.6c8.8,8.6,12.8,21,10.8,33.1l-19.1,111c-.5,2.9,1.5,5.7,4.4,6.3,1.2.2,2.4,0,3.5-.6l99.7-52.4c5.4-2.8,11.3-4.3,17.4-4.3h0Z"/>
</svg>